<svg xmlns="http://www.w3.org/2000/svg" xmlns:xlink="http://www.w3.org/1999/xlink" viewBox="0 0 382.86 400"><defs><style>.cls-1{isolation:isolate;}.cls-2{fill:#38afa0;}.cls-20,.cls-21,.cls-3{fill:none;stroke-miterlimit:10;}.cls-21,.cls-3{stroke:#fff;}.cls-3{stroke-width:0.29px;}.cls-4{fill:#cadeea;}.cls-12,.cls-5{fill:#fff;}.cls-6,.cls-7{opacity:0.7;mix-blend-mode:multiply;}.cls-6{fill:url(#linear-gradient);}.cls-8{fill:url(#linear-gradient-2);}.cls-9{fill:url(#Безымянный_градиент_23);}.cls-10{fill:url(#linear-gradient-3);}.cls-11{fill:url(#Безымянный_градиент_6);}.cls-12{opacity:0.3;}.cls-13{fill:#87c8c6;}.cls-14{fill:#62a6cd;}.cls-15{fill:#99b8d6;}.cls-16{fill:#d4d6e6;}.cls-17{fill:#8564ae;}.cls-18{fill:#5972b1;}.cls-19{fill:#4564a1;}.cls-20{stroke:#38afa0;stroke-width:1.37px;}.cls-21{stroke-width:0.41px;}.cls-22{fill:#d573b7;}.cls-23{fill:#d750a5;}.cls-24{fill:#d9d9d9;}.cls-25{fill:#e8e8e8;}.cls-26{fill:#f2aad4;}.cls-27{fill:url(#Безымянный_градиент_23-2);}</style><linearGradient id="linear-gradient" x1="1117.35" y1="331.95" x2="1207.94" y2="331.95" gradientTransform="matrix(-1, 0, 0, 1, 1419.69, 0)" gradientUnits="userSpaceOnUse"><stop offset="0" stop-color="#6c6bb0"/><stop offset="0.96" stop-color="#dbdfea"/></linearGradient><linearGradient id="linear-gradient-2" x1="1566.64" y1="388.07" x2="1621.92" y2="388.07" gradientTransform="translate(-1393.32 -118.91)" xlink:href="#linear-gradient"/><linearGradient id="Безымянный_градиент_23" x1="139.38" y1="229.85" x2="374.74" y2="229.85" gradientUnits="userSpaceOnUse"><stop offset="0" stop-color="#2d54a4"/><stop offset="1" stop-color="#26418f"/></linearGradient><linearGradient id="linear-gradient-3" x1="1155.1" y1="306.26" x2="1390.46" y2="306.26" gradientTransform="matrix(-1, 0, 0, 1, 1529.84, 0)" xlink:href="#linear-gradient"/><linearGradient id="Безымянный_градиент_6" x1="227.69" y1="63.16" x2="137.14" y2="458.04" gradientUnits="userSpaceOnUse"><stop offset="0.19" stop-color="#4093c2"/><stop offset="1" stop-color="#8564ae"/></linearGradient><linearGradient id="Безымянный_градиент_23-2" x1="94.64" y1="447.27" x2="203.34" y2="447.27" xlink:href="#Безымянный_градиент_23"/></defs><title>Untitled-1</title><g class="cls-1"><g id="Layer_1" data-name="Layer 1"><path class="cls-2" d="M417.44,237.56c-.36-.46-2.55-.94-5.06-1a21.4,21.4,0,0,0-2.51-5.84c1.61-1.49,3.15-3.23,3-4.3-.35-2.17-5.06-5.86-6-6-.59-.08-2.54,1.18-4.37,3a21.92,21.92,0,0,0-5.81-2.43c.09-2.2-.05-4.52-.93-5.16-1.79-1.28-7.73-.57-8.47,0-.46.36-.93,2.54-1,5a22,22,0,0,0-6,2.36c-1.44-1.54-3.09-3-4.13-2.8-2.17.36-5.86,5.07-6,6-.07.55,1,2.27,2.6,4a22.11,22.11,0,0,0-2.72,6.18c-2,0-3.93.15-4.5.95-1.28,1.79-.57,7.73,0,8.46.32.42,2.12.85,4.29,1a21.46,21.46,0,0,0,2.6,6.52c-1.34,1.32-2.45,2.73-2.29,3.64.35,2.17,5.06,5.87,6,6,.51.06,2-.86,3.6-2.25a21.66,21.66,0,0,0,6.56,2.69c0,1.87.2,3.64.95,4.18,1.79,1.28,7.73.56,8.47,0,.41-.33.84-2.13.95-4.31a21.8,21.8,0,0,0,6.34-2.76c1.37,1.41,2.87,2.63,3.82,2.47,2.17-.35,5.87-5.06,6-6,.07-.55-1-2.29-2.63-4a21.52,21.52,0,0,0,2.4-6.16c2.1.06,4.24-.1,4.85-.94C418.72,244.24,418,238.3,417.44,237.56ZM391.22,252a9.8,9.8,0,1,1,9.79-9.8A9.79,9.79,0,0,1,391.22,252Z" transform="translate(-56.19 -49.7)"/><circle class="cls-3" cx="334.88" cy="192.5" r="14.71"/><path class="cls-4" d="M355.76,78.46c-.3-2.29.87-5.39,2.85-6.58a6.13,6.13,0,0,1,6.54.26,5.45,5.45,0,0,0,1.71,1c1.7.39,2.91-1.6,3.48-3.25,2.55-7.41,5-15.95,12-19.48a5.7,5.7,0,0,1,3-.74,5,5,0,0,1,3.83,3.41,19.07,19.07,0,0,1,.76,5.33,13.5,13.5,0,0,0,1.75,6.44,5.85,5.85,0,0,0,5.68,2.85c4.39-.82,6.57-7.77,10.92-6.8s3.6,8,7.35,10.15c2.36-2.91,6.1-6.12,9.34-4.24a7.22,7.22,0,0,1,2.2,2.3,35.86,35.86,0,0,1,4.5,9.3C430.36,78.81,355.76,78.46,355.76,78.46Z" transform="translate(-56.19 -49.7)"/><path class="cls-4" d="M205.84,150.35a4.14,4.14,0,0,1,2.59-4.16,7.65,7.65,0,0,1,5.94.16,5.43,5.43,0,0,0,1.56.66c1.54.25,2.64-1,3.16-2,2.32-4.7,4.54-10.11,10.9-12.34a7.08,7.08,0,0,1,2.75-.47,4.31,4.31,0,0,1,3.48,2.16,8.63,8.63,0,0,1,.7,3.38,6.68,6.68,0,0,0,1.59,4.08,6.28,6.28,0,0,0,5.16,1.8c4-.52,6-4.92,9.92-4.3s3.27,5,6.68,6.42c2.14-1.84,5.55-3.87,8.49-2.68a5.76,5.76,0,0,1,2,1.45,20.89,20.89,0,0,1,4.1,5.89C273.63,150.57,205.84,150.35,205.84,150.35Z" transform="translate(-56.19 -49.7)"/><path class="cls-5" d="M284.45,342.16v-28H229.64v28a33,33,0,0,1-17.9,5.26,2.26,2.26,0,0,0,2.26,2.26h86.08a2.26,2.26,0,0,0,2.26-2.26A32.94,32.94,0,0,1,284.45,342.16Z" transform="translate(-56.19 -49.7)"/><path class="cls-6" d="M229.64,342.16v-28h54.81v28a32.94,32.94,0,0,0,17.89,5.26,2.26,2.26,0,0,1-2.26,2.26H214a2.26,2.26,0,0,1-2.26-2.26A33,33,0,0,0,229.64,342.16Z" transform="translate(-56.19 -49.7)"/><g class="cls-7"><rect class="cls-8" x="173.32" y="264.51" width="55.28" height="9.29"/></g><path class="cls-9" d="M374.74,298.62v-124a13.54,13.54,0,0,0-13.54-13.54H152.93a13.55,13.55,0,0,0-13.55,13.54v124Z" transform="translate(-56.19 -49.7)"/><path class="cls-5" d="M374.74,298.62v1.73a13.54,13.54,0,0,1-13.54,13.54H152.93a13.55,13.55,0,0,1-13.55-13.54v-1.73Z" transform="translate(-56.19 -49.7)"/><g class="cls-7"><path class="cls-10" d="M139.38,298.62v1.73a13.55,13.55,0,0,0,13.55,13.54H361.2a13.54,13.54,0,0,0,13.54-13.54v-1.73Z" transform="translate(-56.19 -49.7)"/></g><rect class="cls-11" x="92.15" y="121.78" width="217.44" height="116.73" rx="3.6"/><path class="cls-5" d="M299.69,353H213.28a2.84,2.84,0,0,1-2.84-2.84h0a2.84,2.84,0,0,1,2.84-2.84h86.41a2.84,2.84,0,0,1,2.84,2.84h0A2.84,2.84,0,0,1,299.69,353Z" transform="translate(-56.19 -49.7)"/><rect class="cls-12" x="98.71" y="130.37" width="71.22" height="21.95"/><path class="cls-5" d="M219.35,185.85a7.54,7.54,0,1,0,0,10.66A7.54,7.54,0,0,0,219.35,185.85ZM218,189.09,214,194a1.06,1.06,0,0,1-.79.39h0a1.07,1.07,0,0,1-.78-.33l-1.81-1.91a1.07,1.07,0,0,1,0-1.52,1.06,1.06,0,0,1,1.51,0l1,1,3.24-4a1.07,1.07,0,0,1,1.66,1.36Z" transform="translate(-56.19 -49.7)"/><path class="cls-5" d="M196.85,191.88H163.68a1.08,1.08,0,0,1,0-2.15h33.17a1.08,1.08,0,1,1,0,2.15Z" transform="translate(-56.19 -49.7)"/><path class="cls-5" d="M237.22,218.22H204.05a1.08,1.08,0,0,1,0-2.15h33.17a1.08,1.08,0,0,1,0,2.15Z" transform="translate(-56.19 -49.7)"/><rect class="cls-12" x="98.71" y="183.05" width="71.22" height="21.96"/><path class="cls-5" d="M219.35,238.53a7.54,7.54,0,1,0,0,10.66A7.54,7.54,0,0,0,219.35,238.53ZM218,241.77l-4,4.89a1.06,1.06,0,0,1-.79.39h0a1.07,1.07,0,0,1-.78-.33l-1.81-1.91a1.07,1.07,0,0,1,1.55-1.48l1,1,3.24-4a1.07,1.07,0,1,1,1.66,1.36Z" transform="translate(-56.19 -49.7)"/><rect class="cls-12" x="138.26" y="156.71" width="71.22" height="21.95"/><path class="cls-5" d="M258.9,212.16a7.54,7.54,0,1,0,0,10.66A7.54,7.54,0,0,0,258.9,212.16Zm-1.33,3.25-4,4.88a1,1,0,0,1-.79.39h0a1.11,1.11,0,0,1-.78-.33l-1.81-1.91a1.06,1.06,0,0,1,0-1.51,1.08,1.08,0,0,1,1.52,0l1,1,3.24-4a1.08,1.08,0,0,1,1.66,1.37Z" transform="translate(-56.19 -49.7)"/><path class="cls-5" d="M196.85,244.56H163.68a1.08,1.08,0,0,1,0-2.15h33.17a1.08,1.08,0,1,1,0,2.15Z" transform="translate(-56.19 -49.7)"/><rect class="cls-12" x="217.4" y="209.21" width="85.33" height="21.96"/><path class="cls-5" d="M351,271.33H281.34a1.08,1.08,0,1,1,0-2.15H351a1.08,1.08,0,0,1,0,2.15Z" transform="translate(-56.19 -49.7)"/><rect class="cls-13" x="98.71" y="209.39" width="71.22" height="21.95"/><path class="cls-5" d="M219.35,264.08a7.54,7.54,0,1,0,0,10.66A7.54,7.54,0,0,0,219.35,264.08Zm-2.63,6.52a1.07,1.07,0,0,1,0,1.52,1.06,1.06,0,0,1-.76.31,1.07,1.07,0,0,1-.76-.31L214,270.93l-1.19,1.19a1.07,1.07,0,0,1-.76.31,1.06,1.06,0,0,1-.76-.31,1.07,1.07,0,0,1,0-1.52l1.19-1.19-1.19-1.19a1.06,1.06,0,0,1,0-1.51,1.07,1.07,0,0,1,1.52,0l1.19,1.18,1.18-1.18a1.07,1.07,0,0,1,1.52,0,1.06,1.06,0,0,1,0,1.51l-1.19,1.19Z" transform="translate(-56.19 -49.7)"/><path class="cls-5" d="M196.85,270.9H163.68a1.08,1.08,0,0,1,0-2.15h33.17a1.08,1.08,0,1,1,0,2.15Z" transform="translate(-56.19 -49.7)"/><path class="cls-14" d="M175.13,398.79H71.3a2.43,2.43,0,0,1-2.44-2.43h0a2.44,2.44,0,0,1,2.44-2.44H175.13a2.44,2.44,0,0,1,2.44,2.44h0A2.43,2.43,0,0,1,175.13,398.79Z" transform="translate(-56.19 -49.7)"/><polygon class="cls-2" points="52.37 79.35 63.2 26.9 64.91 27.12 66.63 26.9 79.89 91.11 77.03 91.48 64.91 32.81 55.23 79.71 52.37 79.35"/><rect class="cls-15" x="58.71" y="118.39" width="35.71" height="7.95" transform="translate(96.93 195.03) rotate(180)"/><rect class="cls-15" x="122.07" y="52.71" width="2.23" height="15.65"/><polygon class="cls-16" points="209.69 54.58 208.11 53 197.36 63.75 197.36 54.72 197.51 54.58 197.36 54.43 197.36 52.71 195.13 52.71 195.13 53.8 185.19 63.75 185.19 54.72 185.34 54.58 185.19 54.43 185.19 52.71 182.96 52.71 182.96 53.8 173.01 63.75 173.01 54.72 173.16 54.58 173.01 54.43 173.01 52.71 170.78 52.71 170.78 53.8 160.83 63.75 160.83 54.72 160.98 54.58 160.83 54.43 160.83 52.71 158.6 52.71 158.6 53.8 148.65 63.75 148.65 54.72 148.8 54.58 148.65 54.43 148.65 52.71 146.43 52.71 146.43 53.8 136.48 63.75 136.48 54.72 136.63 54.58 136.48 54.43 136.48 52.71 134.25 52.71 134.25 53.8 122.68 65.37 124.25 66.95 134.25 56.95 134.25 68.36 136.48 68.36 136.48 66.9 146.43 56.95 146.43 68.36 148.65 68.36 148.65 66.9 158.6 56.95 158.6 68.36 160.83 68.36 160.83 66.9 170.78 56.95 170.78 68.36 173.01 68.36 173.01 66.9 182.96 56.95 182.96 68.36 185.19 68.36 185.19 66.9 195.13 56.95 195.13 68.36 197.36 68.36 197.36 66.9 209.69 54.58"/><polygon class="cls-16" points="124.45 54.58 122.87 53 112.12 63.75 112.12 54.72 112.27 54.58 112.12 54.43 112.12 52.71 109.89 52.71 109.89 53.8 99.94 63.75 99.94 52.71 97.72 52.71 97.72 68.36 99.94 68.36 99.94 66.9 109.89 56.95 109.89 68.36 112.12 68.36 112.12 66.9 124.45 54.58"/><polygon class="cls-16" points="72.74 106.2 72.74 103.97 59.1 103.97 58.95 103.82 58.8 103.97 57.09 103.97 57.09 106.2 58.18 106.2 68.13 116.15 59.1 116.15 58.95 116 58.8 116.15 57.09 116.15 57.09 118.38 58.18 118.38 68.13 128.32 59.1 128.32 58.95 128.18 58.8 128.32 57.09 128.32 57.09 130.55 58.18 130.55 67.46 139.83 59.1 139.83 58.95 139.69 58.8 139.83 57.09 139.83 57.09 142.06 58.18 142.06 68.13 152.01 59.1 152.01 58.95 151.86 58.8 152.01 57.09 152.01 57.09 154.24 58.18 154.24 68.13 164.19 59.1 164.19 58.95 164.04 58.8 164.19 57.09 164.19 57.09 166.42 58.18 166.42 68.13 176.36 59.1 176.36 58.95 176.22 58.8 176.36 57.09 176.36 57.09 178.59 58.18 178.59 68.13 188.54 59.1 188.54 58.95 188.39 58.8 188.54 57.09 188.54 57.09 190.77 58.18 190.77 68.13 200.72 57.09 200.72 57.09 202.39 56.82 202.66 57.09 202.92 57.09 202.95 57.11 202.95 67.57 213.41 58.54 213.41 58.39 213.26 58.24 213.41 56.53 213.41 56.53 215.63 57.62 215.63 67.57 225.58 58.54 225.58 58.39 225.44 58.24 225.58 56.53 225.58 56.53 227.81 57.62 227.81 67.57 237.76 58.54 237.76 58.39 237.61 58.24 237.76 56.53 237.76 56.53 239.99 57.62 239.99 67.57 249.94 58.54 249.94 58.39 249.79 58.24 249.94 56.53 249.94 56.53 252.17 57.62 252.17 67.57 262.12 58.54 262.12 58.39 261.97 58.25 262.12 56.53 262.12 56.53 264.34 57.62 264.34 67.57 274.29 58.54 274.29 58.39 274.14 58.24 274.29 56.53 274.29 56.53 276.52 57.62 276.52 67.57 286.47 58.54 286.47 58.39 286.32 58.24 286.47 56.53 286.47 56.53 288.7 57.62 288.7 67.57 298.65 58.54 298.65 58.39 298.5 58.24 298.65 56.53 298.65 56.53 300.88 57.62 300.88 67.57 310.82 56.53 310.82 56.53 313.05 72.18 313.05 72.18 310.82 70.72 310.82 60.77 300.88 72.18 300.88 72.18 298.65 70.72 298.65 60.77 288.7 72.18 288.7 72.18 286.47 70.72 286.47 60.77 276.52 72.18 276.52 72.18 274.29 70.72 274.29 60.77 264.34 72.18 264.34 72.18 262.12 70.72 262.12 60.77 252.17 72.18 252.17 72.18 249.94 70.72 249.94 60.77 239.99 72.18 239.99 72.18 237.76 70.72 237.76 60.77 227.81 72.18 227.81 72.18 225.58 70.72 225.58 60.77 215.63 72.18 215.63 72.18 213.41 70.72 213.41 60.26 202.95 72.74 202.95 72.74 200.72 71.28 200.72 61.33 190.77 72.74 190.77 72.74 188.54 71.28 188.54 61.33 178.59 72.74 178.59 72.74 176.36 71.28 176.36 61.33 166.42 72.74 166.42 72.74 164.19 71.28 164.19 61.33 154.24 72.74 154.24 72.74 152.01 71.28 152.01 61.33 142.06 69.69 142.06 69.75 142.12 69.81 142.06 72.74 142.06 72.74 139.83 70.61 139.83 61.33 130.55 72.74 130.55 72.74 128.32 71.28 128.32 61.33 118.38 72.74 118.38 72.74 116.15 71.28 116.15 61.33 106.2 72.74 106.2"/><rect class="cls-15" x="159.19" y="45.31" width="1.39" height="82.41" transform="translate(-37.62 151.19) rotate(-67.41)"/><polygon class="cls-15" points="176.32 53.6 175.98 53.5 67.86 22.81 68.24 21.48 68.58 21.58 176.7 52.26 176.32 53.6"/><polygon class="cls-15" points="26.02 51.86 25.36 50.95 25.65 50.74 65.9 21.42 66.56 22.34 66.27 22.54 26.02 51.86"/><polygon class="cls-15" points="10.21 54.32 9.66 53.33 64.72 22.42 65.26 23.41 10.21 54.32"/><path class="cls-2" d="M117.18,72.77a4.2,4.2,0,1,0,4.2-4.19A4.2,4.2,0,0,0,117.18,72.77Z" transform="translate(-56.19 -49.7)"/><rect class="cls-15" x="63.12" y="99.38" width="31.3" height="15.91" transform="translate(101.34 164.96) rotate(180)"/><rect class="cls-2" x="126.65" y="141.23" width="2.9" height="249.04" transform="translate(200.01 481.79) rotate(180)"/><rect class="cls-2" x="112.67" y="141.41" width="2.9" height="249.04" transform="translate(172.03 482.16) rotate(180)"/><rect class="cls-15" x="37.7" y="328.21" width="54.43" height="14.62"/><rect class="cls-17" x="37.7" y="330.59" width="54.43" height="3.48"/><rect class="cls-17" x="37.7" y="336.28" width="54.43" height="3.48"/><polygon class="cls-2" points="49.26 96.68 76.54 96.68 80.56 91.94 70.27 75.8 49.26 75.8 49.26 96.68"/><polygon class="cls-16" points="59.09 79.37 68.39 79.37 73.92 87.94 59.09 87.94 59.09 79.37"/><path class="cls-2" d="M56.19,115.29v2.89H311.38L312,116l-.68-.2-1.79-.52-44.82-13.24H154.27v0l-20.63,13.22Zm245.37,0H137.83l17-10.92H264.61Z" transform="translate(-56.19 -49.7)"/><line class="cls-18" x1="30.13" y1="56.88" x2="30.13" y2="65.58"/><rect class="cls-18" x="29.41" y="56.88" width="1.44" height="8.7"/><line class="cls-18" x1="22.57" y1="56.88" x2="22.57" y2="65.58"/><rect class="cls-18" x="21.85" y="56.88" width="1.44" height="8.7"/><line class="cls-18" x1="15.01" y1="56.88" x2="15.01" y2="65.58"/><rect class="cls-18" x="14.29" y="56.88" width="1.44" height="8.7"/><line class="cls-18" x1="33.2" y1="69.24" x2="33.2" y2="73.19"/><rect class="cls-18" x="32.48" y="69.24" width="1.44" height="3.96"/><line class="cls-18" x1="27.08" y1="69.24" x2="27.08" y2="73.19"/><rect class="cls-18" x="26.36" y="69.24" width="1.44" height="3.96"/><line class="cls-18" x1="20.96" y1="69.24" x2="20.96" y2="73.19"/><rect class="cls-18" x="20.24" y="69.24" width="1.44" height="3.96"/><line class="cls-18" x1="14.84" y1="69.24" x2="14.84" y2="73.19"/><rect class="cls-18" x="14.12" y="69.24" width="1.44" height="3.96"/><line class="cls-18" x1="8.73" y1="69.24" x2="8.73" y2="73.19"/><rect class="cls-18" x="8.01" y="69.24" width="1.44" height="3.96"/><rect class="cls-15" x="105.58" y="146.38" width="27.16" height="3.57" transform="translate(182.12 246.63) rotate(180)"/><path class="cls-19" d="M121.38,73.93a1.32,1.32,0,1,1,1.31-1.31A1.32,1.32,0,0,1,121.38,73.93Zm0-1.91a.6.6,0,0,0-.6.6.6.6,0,0,0,1.19,0A.6.6,0,0,0,121.38,72Z" transform="translate(-56.19 -49.7)"/><line class="cls-20" x1="255.26" y1="65.93" x2="255.26" y2="117.45"/><path class="cls-2" d="M348.17,197.53c-.51-.65-3.6-1.32-7.13-1.39a30.68,30.68,0,0,0-3.54-8.24c2.27-2.1,4.44-4.55,4.19-6.06-.51-3.06-7.14-8.27-8.45-8.44-.83-.11-3.58,1.67-6.16,4.19a30.88,30.88,0,0,0-8.19-3.43c.12-3.1-.07-6.38-1.32-7.27-2.52-1.81-10.9-.81-11.94,0-.66.5-1.33,3.57-1.39,7.09a30.78,30.78,0,0,0-8.48,3.33c-2-2.17-4.37-4.18-5.82-3.94-3.06.5-8.28,7.14-8.45,8.44-.1.78,1.43,3.21,3.68,5.62a30.57,30.57,0,0,0-3.85,8.71c-2.79,0-5.54.22-6.34,1.35-1.81,2.52-.8,10.9,0,11.94.45.58,3,1.19,6,1.35a30.67,30.67,0,0,0,3.67,9.2c-1.88,1.86-3.44,3.84-3.23,5.14.5,3.06,7.14,8.27,8.44,8.44.72.09,2.85-1.21,5.08-3.18a30.5,30.5,0,0,0,9.25,3.8c0,2.64.29,5.13,1.35,5.89,2.52,1.81,10.9.81,11.94,0,.59-.45,1.19-3,1.36-6.06a30.73,30.73,0,0,0,8.94-3.91c1.93,2,4,3.72,5.39,3.5,3.06-.51,8.28-7.14,8.45-8.45.1-.78-1.45-3.23-3.71-5.65a30.74,30.74,0,0,0,3.38-8.69c3,.09,6-.15,6.84-1.33C350,207,349,198.57,348.17,197.53Zm-37,20.37A13.82,13.82,0,1,1,325,204.08,13.81,13.81,0,0,1,311.18,217.9Z" transform="translate(-56.19 -49.7)"/><circle class="cls-21" cx="310.98" cy="204.08" r="20.76" transform="translate(-15.29 410.14) rotate(-76.72)"/><path class="cls-22" d="M412.12,161.18a1.51,1.51,0,0,0,1.46,1.56h2.83v5.88l6.94-5.88h14.24a1.51,1.51,0,0,0,1.46-1.56V143.39a1.51,1.51,0,0,0-1.46-1.56h-24a1.51,1.51,0,0,0-1.46,1.56Z" transform="translate(-56.19 -49.7)"/><polygon class="cls-5" points="374.42 102.5 370.49 104.77 366.56 107.03 366.56 102.5 366.56 97.96 370.49 100.23 374.42 102.5"/><rect class="cls-22" x="239.75" y="18.06" width="21.8" height="21.8"/><rect class="cls-4" x="241.91" y="20.22" width="17.49" height="17.49"/><path class="cls-22" d="M304.57,75.31A1.56,1.56,0,1,1,303,73.76,1.55,1.55,0,0,1,304.57,75.31Z" transform="translate(-56.19 -49.7)"/><polygon class="cls-22" points="252.53 28.85 255.32 32.38 258.11 35.91 252.53 35.91 246.94 35.91 249.73 32.38 252.53 28.85"/><polygon class="cls-22" points="247.28 30.95 249.24 33.43 251.2 35.91 247.28 35.91 243.36 35.91 245.32 33.43 247.28 30.95"/><path class="cls-23" d="M151.4,374l-.78,3.38h1.59l.73-5.16A2.44,2.44,0,0,0,151.4,374Z" transform="translate(-56.19 -49.7)"/><polygon class="cls-23" points="82.72 377.83 80.05 389.28 87.27 389.28 88.89 377.83 82.72 377.83"/><polygon class="cls-23" points="94.44 338.69 91.85 338.69 89.84 347.28 93.22 347.28 94.44 338.69"/><polygon class="cls-23" points="91.66 358.33 87.27 358.33 85.29 366.79 90.46 366.79 91.66 358.33"/><polygon class="cls-24" points="96.01 327.64 94.42 327.64 91.85 338.69 94.44 338.69 96.01 327.64"/><polygon class="cls-24" points="85.29 366.79 82.72 377.83 88.89 377.83 90.46 366.79 85.29 366.79"/><polygon class="cls-24" points="93.22 347.28 89.84 347.28 87.27 358.33 91.66 358.33 93.22 347.28"/><path class="cls-22" d="M155.3,372.44a2.63,2.63,0,0,0-2.36-.25l-.73,5.16h3.9Z" transform="translate(-56.19 -49.7)"/><polygon class="cls-22" points="88.89 377.83 87.27 389.28 110.07 389.28 108.18 377.83 88.89 377.83"/><polygon class="cls-22" points="101.74 338.69 94.44 338.69 93.22 347.28 103.15 347.28 101.74 338.69"/><polygon class="cls-22" points="104.97 358.33 91.66 358.33 90.46 366.79 106.36 366.79 104.97 358.33"/><polygon class="cls-25" points="99.92 327.64 96.01 327.64 94.44 338.69 101.74 338.69 99.92 327.64"/><polygon class="cls-25" points="106.36 366.79 90.46 366.79 88.89 377.83 108.18 377.83 106.36 366.79"/><polygon class="cls-25" points="103.15 347.28 93.22 347.28 91.66 358.33 104.97 358.33 103.15 347.28"/><path class="cls-26" d="M157.13,377.35l-.78-3.38a2.48,2.48,0,0,0-1-1.53l.81,4.91Z" transform="translate(-56.19 -49.7)"/><polygon class="cls-26" points="108.18 377.83 110.07 389.28 115.31 389.28 112.64 377.83 108.18 377.83"/><polygon class="cls-26" points="103.15 347.28 105.52 347.28 103.52 338.69 101.74 338.69 103.15 347.28"/><polygon class="cls-26" points="106.36 366.79 110.07 366.79 108.1 358.33 104.97 358.33 106.36 366.79"/><polygon class="cls-5" points="101.74 338.69 103.52 338.69 100.94 327.64 99.92 327.64 101.74 338.69"/><polygon class="cls-5" points="108.18 377.83 112.64 377.83 110.07 366.79 106.36 366.79 108.18 377.83"/><polygon class="cls-5" points="104.97 358.33 108.1 358.33 105.52 347.28 103.15 347.28 104.97 358.33"/><path class="cls-23" d="M123.06,443.71v1.52h61.63v-1.52a4.71,4.71,0,0,0-1.59-3.53H124.65A4.71,4.71,0,0,0,123.06,443.71Z" transform="translate(-56.19 -49.7)"/><path class="cls-26" d="M127.79,439a4.73,4.73,0,0,0-3.14,1.2H183.1A4.73,4.73,0,0,0,180,439Z" transform="translate(-56.19 -49.7)"/><path class="cls-27" d="M200.9,449.7H97.07a2.43,2.43,0,0,1-2.43-2.43h0a2.43,2.43,0,0,1,2.43-2.43H200.9a2.43,2.43,0,0,1,2.44,2.43h0A2.43,2.43,0,0,1,200.9,449.7Z" transform="translate(-56.19 -49.7)"/></g></g></svg>